<?xml version="1.0" encoding="UTF-8"?>
<svg id="Capa_2" data-name="Capa 2" xmlns="http://www.w3.org/2000/svg" xmlns:xlink="http://www.w3.org/1999/xlink" viewBox="0 0 133.77 133.77">
  <defs>
    <style>
      .cls-1 {
        fill: #fff;
      }

      .cls-2 {
        fill: url(#Degradado_sin_nombre_27);
      }
    </style>
    <linearGradient id="Degradado_sin_nombre_27" data-name="Degradado sin nombre 27" x1="124.66" y1="33.16" x2="9.11" y2="100.61" gradientUnits="userSpaceOnUse">
      <stop offset=".15" stop-color="#2abaff"/>
      <stop offset="1" stop-color="#00647f"/>
    </linearGradient>
  </defs>
  <g id="Capa_1-2" data-name="Capa 1">
    <circle class="cls-2" cx="66.89" cy="66.89" r="66.89"/>
    <path class="cls-1" d="M104.15,58.14c-.21,1.96-.52,3.94-.93,5.94-4.8,23.09-21.84,39.07-38.08,35.7-16.23-3.37-25.5-24.82-20.71-47.91,3.54-17.04,13.75-30.2,25.38-34.58-.79-.04-1.57-.06-2.37-.06-27.96,0-50.62,22.66-50.62,50.62s22.66,50.62,50.62,50.62c22.36,0,41.34-14.5,48.03-34.61l-11.33-25.72Z"/>
    <path class="cls-1" d="M57.71,29.95s.1,15.16,3.69,31.63c-10.79,7.37-13.67,14.53-13.67,14.53,3.09,10.16,7.81,14.34,7.81,14.34,3.44-6.81,7.54-10.94,10.44-13.25,2.22,5.77,5.04,11.13,8.62,15.43,0,0,9.74-2.06,13.79-10.53,0,0-15.14-28.9-18.04-63.57,0,0-5.86,2.22-12.63,11.42Z"/>
  </g>
</svg>